<svg version="1.1" xmlns="http://www.w3.org/2000/svg" xmlns:xlink="http://www.w3.org/1999/xlink" viewBox="0 0 16 16">
  <g>
    <rect x="4.9" y="9.8" width="6.2" height="1.2"/>
    <rect x="4.9" y="12.3" width="6.2" height="1.2"/>
    <path d="M14.8,3.7h-1.2V1.2V0h-1.2H3.7H2.5v1.2v2.5H1.2H0v1.2v4.9v1.2h1.2h1.2v3.7V16h11.1v-1.2v-3.7h1.2H16V9.8V4.9
    V3.7H14.8z M3.7,1.2h8.6v2.5H3.7V1.2z M12.3,9.8v1.2v3.7H3.7v-3.7V9.8V8.6h8.6V9.8z M14.8,9.8h-1.2V8.6V7.4h-1.2H3.7H2.5v1.2v1.2
    H1.2V4.9h1.2h1.2h8.6h1.2h1.2V9.8z"/>
  </g>
</svg>
