<svg version="1.1" xmlns="http://www.w3.org/2000/svg" viewBox="0 0 1440 17" width="1440" height="17">
  <g>
    <polygon fill="#F9E070" points="0,0 121,0 132.1,17 0,17.1"/>
    <polygon fill="#F8D643" points="256.5,17 274,0 121,0 132.1,17"/>
    <polygon fill="#B27F1B" points="274,0 475.1,0 491.1,17 256.5,17"/>
    <polygon fill="#F9E070" points="600.6,17.1 620.2,0 475.1,0 491.1,17"/>
    <polygon fill="#FFEA8B" points="632.3,17 623.7,0 620.2,0 600.6,17.1"/>
    <polygon fill="#CB9F24" points="699.9,17 728.5,0 623.7,0 632.3,17"/>
    <path fill="#F8D643" d="M1207.9,17.1L1204.2,6l5.4-6H728.5l-28.7,17C699.9,17,1208.1,17.1,1207.9,17.1z"/>
    <path fill="#FFEA8B" d="M1357.3,17.1L1343.3,0h-133.6l-5.4,6l3.7,11.1C1207.9,17.1,1357.6,17.3,1357.3,17.1z"/>
    <polygon fill="#CB9F24" points="1439.9,16.9 1439.9,0.1 1343.3,0.1 1357.3,17.1"/>
  </g>
</svg>
